<svg id="Layer_1" data-name="Layer 1" xmlns="http://www.w3.org/2000/svg" xmlns:xlink="http://www.w3.org/1999/xlink" width="253.45" height="124.78" viewBox="0 0 253.45 124.78">
  <defs>
    <style>
      .cls-1 {
        fill: #231f20;
      }

      .cls-2 {
        fill: url(#linear-gradient);
      }

      .cls-3 {
        fill: #fff;
      }

      .cls-4 {
        fill: url(#linear-gradient-2);
      }

      .cls-5 {
        fill: url(#linear-gradient-3);
      }

      .cls-6 {
        fill: url(#linear-gradient-4);
      }

      .cls-7 {
        fill: url(#linear-gradient-5);
      }
    </style>
    <linearGradient id="linear-gradient" x1="149.32" y1="9.17" x2="78.25" y2="84.72" gradientUnits="userSpaceOnUse">
      <stop offset="0" stop-color="#b97cd9"/>
      <stop offset="1" stop-color="#5d22d5"/>
    </linearGradient>
    <linearGradient id="linear-gradient-2" x1="154.54" y1="20.89" x2="83.47" y2="96.44" xlink:href="#linear-gradient"/>
    <linearGradient id="linear-gradient-3" x1="191.05" y1="40.81" x2="168.37" y2="14.3" gradientTransform="matrix(0.97, -0.22, -0.22, -0.97, 14.51, 167.39)" xlink:href="#linear-gradient"/>
    <linearGradient id="linear-gradient-4" x1="30.52" y1="119.31" x2="41.45" y2="119.31" xlink:href="#linear-gradient"/>
    <linearGradient id="linear-gradient-5" x1="236.97" y1="32.38" x2="243.41" y2="32.38" gradientTransform="translate(34.4 194.74) rotate(-45)" xlink:href="#linear-gradient"/>
  </defs>
  <path class="cls-1" d="M258.34,76c1.14,10.81-13.92,19.37-22.06,23.92C189,123.77,122.47,134.79,69.58,134.7c-81.8-1-87.26-36.38-8.91-60.89C111.3,58.57,178.16,50.11,230.35,59.4c9.2,2.05,26,5.94,28,16.6Zm0,0c-2-10.62-19-14.45-28-16.41-51.22-8.8-119.09,2.2-168.3,18.32C49.14,82.28,9.1,96.78,10.06,112.31c3.45,15.17,46.24,17.62,59.63,18.1,51.73,1.36,119.93-7.55,166.5-30.65,8.22-4.54,23.22-13,22.15-23.76Z" transform="translate(-4.95 -11.46)"/>
  <circle class="cls-2" cx="109.01" cy="52.02" r="52.02"/>
  <g id="_0" data-name="0">
    <path class="cls-3" d="M108,104.75l-4.44-4.14a1.63,1.63,0,0,1-.52-1.07l-1.73-19.17a1.62,1.62,0,0,0-.43-1l-6.61-7.11a1.66,1.66,0,0,1-.2-2l4.37-7a1.65,1.65,0,0,1,2.07-.64l8.24,3.67a1.46,1.46,0,0,1,.5.35l3.68,3.75a1.79,1.79,0,0,0,.59.39l6.8,2.58a1.66,1.66,0,0,1,1,1.93l-2.09,8.76a1.07,1.07,0,0,1-.09.27l-8.52,19.87A1.66,1.66,0,0,1,108,104.75Z" transform="translate(-4.95 -11.46)"/>
    <path class="cls-3" d="M147.89,29.08l-10.59,11a1.71,1.71,0,0,0-.41.73l-1.41,5.54a1.64,1.64,0,0,1-.36.69l-6.5,7.35a1.63,1.63,0,0,0-.19,1.91l5.92,10.33a1.67,1.67,0,0,0,1.08.79L144,69.28a1.64,1.64,0,0,1,1.25,1.2l5.95,22.63a1.65,1.65,0,0,0,3,.42l7.58-12.78a1.58,1.58,0,0,0,.21-.56l2.84-16.43a1.45,1.45,0,0,0,0-.55L162.2,47.43a1.74,1.74,0,0,0-.19-.54l-8.32-14.95a1.6,1.6,0,0,0-.41-.49l-3.17-2.52A1.66,1.66,0,0,0,147.89,29.08Z" transform="translate(-4.95 -11.46)"/>
    <path class="cls-3" d="M90.67,20.46l6.83,5.29A1.61,1.61,0,0,0,99,26l11.18-3.23a1.64,1.64,0,0,1,1.63.42L115,26.5a1.65,1.65,0,0,1,0,2.27L111.9,32.3a1.66,1.66,0,0,0-.15,2l1.73,2.61a1.65,1.65,0,0,1-.73,2.43l-9,3.85a1.41,1.41,0,0,0-.43.27l-8.44,7.27a1.63,1.63,0,0,1-1.07.4H87.24a1.65,1.65,0,0,0-1.65,1.54L85.31,57a1.65,1.65,0,0,0,1.31,1.73l5.57,1.14a1.64,1.64,0,0,1,1.08.77h0a1.65,1.65,0,0,1-2.13,2.34L85,60l-5.31-2.65a1.77,1.77,0,0,1-.59-.5l-6.25-8.54a1.54,1.54,0,0,1-.29-.67L71.1,40a1.69,1.69,0,0,1,.28-1.27L78,29.52a1.93,1.93,0,0,1,.27-.3l10.31-8.71A1.64,1.64,0,0,1,90.67,20.46Z" transform="translate(-4.95 -11.46)"/>
  </g>
  <path class="cls-4" d="M114.47,115.51a52,52,0,1,1,52-52A52.08,52.08,0,0,1,114.47,115.51Zm0-100.79a48.77,48.77,0,1,0,48.76,48.77A48.82,48.82,0,0,0,114.47,14.72Z" transform="translate(-4.95 -11.46)"/>
  <circle class="cls-5" cx="181.97" cy="103.38" r="18.87"/>
  <path class="cls-3" d="M185.32,128.3l2.36-.56,5.53-11.85,5-1.17a2.57,2.57,0,0,0-1.18-5l-5.12,1.21-10.24-8.12-2.23.53,5.86,9.15-5.74,1.36-3.38-3.16-2.5.59,4,5.66-1,6.82,2.49-.58,1.62-4.34,5.84-1.38Z" transform="translate(-4.95 -11.46)"/>
  <circle class="cls-6" cx="35.99" cy="119.31" r="5.47"/>
  <circle class="cls-7" cx="227.13" cy="47.8" r="3.22"/>
</svg>
