<svg xmlns="http://www.w3.org/2000/svg" width="33" height="32" viewBox="0 0 33 32" fill="none">
<path fill-rule="evenodd" clip-rule="evenodd" d="M31.4717 22.5V18.3353L25.77 16H4.87065L2.47168 13.1707V22.5C2.47168 23.0523 2.91939 23.5 3.47168 23.5H30.4717C31.024 23.5 31.4717 23.0523 31.4717 22.5Z" fill="#05ac05"/>
<path fill-rule="evenodd" clip-rule="evenodd" d="M2.2998 13L4.7998 16H25.7998L31.2998 18.5V10.5L29.7998 8L27.7998 7.5H5.7998L3.2998 8.5L2.2998 11V13Z" fill="white"/>
<path d="M5.7998 7H27.7998C30.0089 7 31.7998 8.79086 31.7998 11V22C31.7998 23.1046 30.9044 24 29.7998 24H3.7998C2.69524 24 1.7998 23.1046 1.7998 22V11C1.7998 8.79086 3.59067 7 5.7998 7ZM5.7998 8C4.14295 8 2.7998 9.34315 2.7998 11V22C2.7998 22.5523 3.24752 23 3.7998 23H29.7998C30.3521 23 30.7998 22.5523 30.7998 22V11C30.7998 9.34315 29.4567 8 27.7998 8H5.7998Z" fill="#333333"/>
<path d="M30.2998 25.5H3.2998C3.02366 25.5 2.7998 25.7239 2.7998 26C2.7998 26.2761 3.02366 26.5 3.2998 26.5H30.2998C30.5759 26.5 30.7998 26.2761 30.7998 26C30.7998 25.7239 30.5759 25.5 30.2998 25.5Z" fill="#333333"/>
<path d="M2.09082 13.4941L3.89069 15.6169C4.3657 16.1771 5.06303 16.5001 5.79753 16.5001H25.3768C25.5718 16.5001 25.7649 16.5381 25.9454 16.612L31.2827 18.7981L31.6617 17.8727L26.3244 15.6866C26.0237 15.5634 25.7018 15.5001 25.3768 15.5001H5.79753C5.35683 15.5001 4.93843 15.3063 4.65343 14.9702L2.42007 12.3401L2.09082 13.4941Z" fill="#333333"/>
<path d="M9.2998 21C8.60945 21 7.98445 21.2798 7.53204 21.7322C7.07963 22.1846 6.7998 22.8096 6.7998 23.5C6.7998 24.1904 7.07963 24.8154 7.53204 25.2678C7.98445 25.7202 8.60945 26 9.2998 26C9.99016 26 10.6152 25.7202 11.0676 25.2678C11.52 24.8154 11.7998 24.1904 11.7998 23.5C11.7998 22.8096 11.52 22.1846 11.0676 21.7322C10.6152 21.2798 9.99016 21 9.2998 21Z" fill="white" stroke="#333333"/>
<path d="M27.7998 19H31.7998V22H27.7998C27.2475 22 26.7998 21.5523 26.7998 21V20C26.7998 19.4477 27.2475 19 27.7998 19Z" fill="#333333"/>
<path d="M30.7998 20H27.7998V21H30.7998V20Z" fill="white"/>
<path d="M23.2998 21C22.6094 21 21.9844 21.2798 21.532 21.7322C21.0796 22.1846 20.7998 22.8096 20.7998 23.5C20.7998 24.1904 21.0796 24.8154 21.532 25.2678C21.9844 25.7202 22.6094 26 23.2998 26C23.9902 26 24.6152 25.7202 25.0676 25.2678C25.52 24.8154 25.7998 24.1904 25.7998 23.5C25.7998 22.8096 25.52 22.1846 25.0676 21.7322C24.6152 21.2798 23.9902 21 23.2998 21Z" fill="white" stroke="#333333"/>
<path d="M13.7998 12.5C13.7998 12.2239 13.5759 12 13.2998 12C13.0237 12 12.7998 12.2239 12.7998 12.5V15.5C12.7998 15.7761 13.0237 16 13.2998 16C13.5759 16 13.7998 15.7761 13.7998 15.5V12.5Z" fill="#333333"/>
<path d="M22.7998 8H21.7998V16H22.7998V8Z" fill="#333333"/>
</svg>