  <svg xmlns="http://www.w3.org/2000/svg"  data-name="Layer 1" viewBox="0 0 100 125"><path width="10px" height='10px' fill="#fff" d="M96.56,55.31A13.7,13.7,0,0,0,100,46,12.16,12.16,0,0,0,88,34H70.69a15.74,15.74,0,0,1,.5-1.5,10.46,10.46,0,0,1,.69-1.38q0.44-.75.62-1.12,1.12-2.12,1.72-3.5a25.54,25.54,0,0,0,1.19-3.75A19.48,19.48,0,0,0,76,18c0-1,0-1.81,0-2.44a26.88,26.88,0,0,0-.31-2.81,15.78,15.78,0,0,0-.75-3.12,14.56,14.56,0,0,0-1.5-2.81,8.76,8.76,0,0,0-2.5-2.53,13.7,13.7,0,0,0-3.75-1.62A18.67,18.67,0,0,0,62,2a3.84,3.84,0,0,0-2.81,1.19,10.85,10.85,0,0,0-2.13,3.12,18.6,18.6,0,0,0-1.22,3.25q-0.34,1.37-.78,3.81Q54.5,16,54.22,17.16a20,20,0,0,1-1.09,3,9.58,9.58,0,0,1-1.94,3,92.41,92.41,0,0,0-6.31,7.5q-3.06,4-6.31,7.56t-4.75,3.69a4.1,4.1,0,0,0-2.69,1.28A3.77,3.77,0,0,0,30,45.94V86a3.74,3.74,0,0,0,1.19,2.78A4.13,4.13,0,0,0,34,90q2.19,0.06,9.88,2.75,4.81,1.62,7.53,2.47T59,97a46.44,46.44,0,0,0,9,1h8.06q8.31-.12,12.31-4.87Q92,88.81,91.43,81.81a12.16,12.16,0,0,0,3.37-5.87,12.85,12.85,0,0,0,0-7.31,13,13,0,0,0,2.69-8.56A14.9,14.9,0,0,0,96.56,55.31Z"/><path fill="#fff" d="M26,46V86a4.06,4.06,0,0,1-4,4H4a3.85,3.85,0,0,1-2.81-1.19A3.85,3.85,0,0,1,0,86V46a3.85,3.85,0,0,1,1.19-2.81A3.85,3.85,0,0,1,4,42H22A4.06,4.06,0,0,1,26,46Z"/></svg>