
<svg xmlns="http://www.w3.org/2000/svg" viewBox="0 0 238 140">
  <defs>
    <radialGradient id="prefix__a" cx="31.694%" cy="50%" r="99.984%" fx="31.694%" fy="50%">
      <stop offset="0%" stop-color="#FFCC4C"/>
      <stop offset="100%" stop-color="#FFE367"/>
    </radialGradient>
    <radialGradient id="prefix__b" cx="31.694%" cy="50%" r="100.423%" fx="31.694%" fy="50%" gradientTransform="scale(1 .84946) rotate(10.194 -.18 .544)">
      <stop offset="0%" stop-color="#FFCC4C"/>
      <stop offset="100%" stop-color="#FFE367"/>
    </radialGradient>
  </defs>
  <g fill="none" fillRule="evenodd" transform="translate(5.5 5)">
        <path fillRule="nonzero" stroke="#191919" stroke-dasharray="4.8" stroke-width="4.8" d="M126.175 125.624c61.855-13.147 108.088-42.199 103.265-64.888-4.822-22.689-58.875-30.424-120.73-17.276C46.856 56.608.622 85.659 5.445 108.348c4.822 22.69 58.875 30.424 120.73 17.276z"/>
        <circle cx="89.77" cy="68.27" r="46.27" fill="#FFF" fillRule="nonzero"/>
        <path fill="#753adf" stroke="#FFF" stroke-width="4.8" d="M16.535 5.87c-2.61.692-4.929 2.054-6.77 3.896-1.841 1.842-3.204 4.163-3.898 6.774l-7.76 29.279c-1.387 5.212.117 10.78 3.953 14.61l21.514 21.514c3.836 3.831 9.397 5.334 14.606 3.953l29.285-7.764c2.61-.692 4.933-2.056 6.776-3.9 1.842-1.842 3.205-4.164 3.893-6.774l7.76-29.274c1.386-5.213-.118-10.78-3.954-14.61L60.436 2.057c-3.392-3.387-7.564-5.82-43.9 3.813z"/>
        <g fillRule="nonzero" stroke="#191919" stroke-width="4.8" transform="translate(43.5 16)">
            <circle cx="46.27" cy="46.27" r="46.27"/>
            <ellipse cx="46.27" cy="46.27" rx="19.454" ry="46.27"/>
            <path d="M7.211 19.275c8.212 7.672 22.636 12.76 39.06 12.76 16.606 0 31.17-5.203 39.332-13.019M84.758 74.642c-8.3-7.38-22.44-12.24-38.488-12.24-16.134 0-30.34 4.913-38.62 12.36"/>
        </g>
        <g>
            <path fill="#753adf" d="M4.507 9.124L.627 23.762c-.583 2.195.051 4.537 1.665 6.149L13.05 40.668c1.614 1.612 3.954 2.247 6.147 1.666l14.642-3.882c2.193-.582 3.903-2.29 4.482-4.484l3.88-14.638c.584-2.195-.05-4.537-1.665-6.149L29.784 2.422C28.169.811 25.829.176 23.637.757L8.99 4.641c-2.193.581-3.9 2.288-4.483 4.483z" transform="rotate(-35 234.456 -214.792)"/>
            <path fill="#191919" fillRule="nonzero" d="M19.157 9.1c-.278-.395-.727-.634-1.21-.64l-2.261-.037 4.998 10.809-6.623.275-2.426-3.459c-.117-.165-.305-.266-.507-.27l-1.674-.015 2.453 5.305-2.453 5.306 1.674-.016c.202-.003.39-.104.507-.27l2.441-3.48 6.614.284-5.004 10.821 2.26-.036c.484-.007.934-.247 1.21-.642 4.61-6.606 6.924-9.926 6.943-9.961l6.082.207c1.223 0 2.214-.992 2.213-2.213 0-1.222-.99-2.212-2.213-2.212l-6.084.198-6.94-9.953z" transform="rotate(-35 234.456 -214.792)"/>
        </g>
        <path fill="#753adf" stroke="#FFF" stroke-width="4" d="M130.426 23.3c4.747 0 9.495 1.81 13.117 5.433 3.622 3.622 5.433 8.37 5.433 13.117 0 4.748-1.81 9.495-5.433 13.118h0l-10.289 10.288c-.781.781-1.805 1.172-2.828 1.172-1.024 0-2.048-.39-2.829-1.172h0l-10.289-10.288c-3.622-3.623-5.433-8.37-5.433-13.118 0-4.747 1.811-9.495 5.433-13.117 3.623-3.622 8.37-5.433 13.118-5.433zm0 13.386c-1.322 0-2.644.504-3.652 1.513-1.008 1.008-1.513 2.33-1.513 3.651 0 1.322.505 2.644 1.513 3.652s2.33 1.513 3.652 1.513c1.321 0 2.643-.505 3.651-1.513 1.009-1.008 1.513-2.33 1.513-3.652 0-1.321-.504-2.643-1.513-3.651-1.008-1.009-2.33-1.513-3.651-1.513z"/>
        <path fill="#191919" d="M135.492 36.784c2.797 2.798 2.797 7.334 0 10.132-2.798 2.798-7.334 2.798-10.132 0s-2.798-7.334 0-10.132c2.798-2.797 7.334-2.797 10.132 0z"/>
    </g>
</svg>